<svg width="340" height="340" viewBox="0 0 340 340" fill="none" xmlns="http://www.w3.org/2000/svg">
<rect width="100" height="100" fill="#333333"/>
<rect x="120" width="100" height="100" fill="#333333"/>
<rect x="240" width="100" height="100" fill="#333333"/>
<rect y="120" width="100" height="100" fill="#333333"/>
<rect x="120" y="120" width="100" height="100" fill="#333333"/>
<rect x="240" y="120" width="100" height="100" fill="#333333"/>
<rect y="240" width="100" height="100" fill="#333333"/>
<rect x="120" y="240" width="100" height="100" fill="#333333"/>
<rect x="240" y="240" width="100" height="100" fill="#333333"/>
<path d="M171.254 266.585C162.206 266.524 153.373 264.954 144.756 261.876C136.138 258.737 128.383 253.659 121.489 246.642C114.595 239.563 109.116 230.177 105.054 218.482C100.991 206.725 98.991 192.168 99.0526 174.81C99.0526 158.621 100.776 144.187 104.223 131.507C107.67 118.827 112.625 108.117 119.088 99.3764C125.551 90.5743 133.338 83.8651 142.447 79.2486C151.619 74.6321 161.867 72.3239 173.193 72.3239C185.073 72.3239 195.598 74.6629 204.77 79.3409C214.003 84.0189 221.451 90.4204 227.114 98.5455C232.777 106.609 236.285 115.719 237.639 125.875H203.939C202.215 118.612 198.676 112.826 193.321 108.517C188.027 104.147 181.318 101.962 173.193 101.962C160.082 101.962 149.988 107.655 142.909 119.043C135.892 130.43 132.353 146.064 132.291 165.946H133.584C136.6 160.529 140.509 155.882 145.31 152.004C150.111 148.126 155.527 145.141 161.56 143.048C167.653 140.894 174.086 139.817 180.857 139.817C191.936 139.817 201.877 142.464 210.679 147.757C219.543 153.051 226.56 160.345 231.73 169.639C236.901 178.872 239.455 189.459 239.393 201.401C239.455 213.834 236.624 225.006 230.899 234.916C225.175 244.765 217.204 252.52 206.986 258.183C196.768 263.846 184.857 266.647 171.254 266.585ZM171.07 238.886C177.779 238.886 183.78 237.255 189.074 233.993C194.367 230.731 198.553 226.33 201.631 220.79C204.708 215.25 206.216 209.033 206.155 202.139C206.216 195.368 204.739 189.244 201.723 183.766C198.768 178.287 194.675 173.948 189.443 170.747C184.211 167.546 178.241 165.946 171.531 165.946C166.545 165.946 161.898 166.9 157.589 168.808C153.281 170.716 149.526 173.363 146.325 176.749C143.125 180.072 140.601 183.95 138.754 188.382C136.969 192.752 136.046 197.43 135.984 202.416C136.046 209.002 137.585 215.065 140.601 220.605C143.617 226.145 147.772 230.577 153.065 233.901C158.359 237.224 164.36 238.886 171.07 238.886Z" fill="white"/>
</svg>
